<svg xmlns="http://www.w3.org/2000/svg" height="1200" width="1600" version="1.1" xmlns:xlink="http://www.w3.org/1999/xlink" xmlns:svgjs="http://svgjs.com/svgjs"><rect fill="#effaff" width="1600" height="1200"></rect><g><path d="M666.12 340.76H647.97C628.18 340.76 612.17 324.75 612.17 304.96 612.17 285.17 628.18 269.17 647.97 269.17H1063.82" stroke="#333333" stroke-width="2" stroke-linecap="round" stroke-linejoin="round" opacity="1" fill="none"></path></g><g><path d="M739.28 317.26V295.91H855.04V441.76H739.28V337.43" fill="#78c7e0" opacity="1" stroke-width="2" stroke="none"></path><path d="M739.28 317.26V295.91H855.04V441.76H739.28V337.43" stroke="#333333" stroke-width="2" stroke-linecap="round" stroke-linejoin="round" opacity="1" fill="none"></path><path d="M739.28 322.73V332.16" stroke="#333333" stroke-width="2" stroke-linecap="round" stroke-linejoin="round" opacity="1" fill="none"></path><path d="M756.09 322.39L761.08 327.38 769.33 319.13" stroke="#333333" stroke-width="2" stroke-linecap="round" stroke-linejoin="round" opacity="1" fill="none"></path><path d="M773 327.38L838.1 327.38" stroke="#333333" stroke-width="2" stroke-linecap="round" stroke-linejoin="round" opacity="1" fill="none"></path><path d="M756.09 344.4L761.08 349.39 769.33 341.07" stroke="#333333" stroke-width="2" stroke-linecap="round" stroke-linejoin="round" opacity="1" fill="none"></path><path d="M773 349.39H838.1" stroke="#333333" stroke-width="2" stroke-linecap="round" stroke-linejoin="round" opacity="1" fill="none"></path><path d="M756.09 366.34L761.08 371.33 769.33 363.01" stroke="#333333" stroke-width="2" stroke-linecap="round" stroke-linejoin="round" opacity="1" fill="none"></path><path d="M802.91 371.33H838.1" stroke="#333333" stroke-width="2" stroke-linecap="round" stroke-linejoin="round" opacity="1" fill="none"></path><path d="M773 371.33H796.68" stroke="#333333" stroke-width="2" stroke-linecap="round" stroke-linejoin="round" opacity="1" fill="none"></path><path d="M756.09 388.28L761.08 393.27 769.33 384.92" stroke="#333333" stroke-width="2" stroke-linecap="round" stroke-linejoin="round" opacity="1" fill="none"></path><path d="M773 393.27H838.1" stroke="#333333" stroke-width="2" stroke-linecap="round" stroke-linejoin="round" opacity="1" fill="none"></path><path d="M756.09 410.18L761.08 415.21 769.33 406.93" stroke="#333333" stroke-width="2" stroke-linecap="round" stroke-linejoin="round" opacity="1" fill="none"></path><path d="M826.31 415.21H838.1" stroke="#333333" stroke-width="2" stroke-linecap="round" stroke-linejoin="round" opacity="1" fill="none"></path><path d="M773 415.21H820.35" stroke="#333333" stroke-width="2" stroke-linecap="round" stroke-linejoin="round" opacity="1" fill="none"></path></g><g><path d="M1074.96 468.82C1155.56 468.82 1220.88 403.5 1220.88 322.9 1220.88 242.29 1155.56 176.97 1074.96 176.97 994.36 176.97 929.04 242.29 929.04 322.9 929.04 403.5 994.36 468.82 1074.96 468.82Z" fill="#46cdcf" stroke="#333333" stroke-width="2" stroke-linecap="round" stroke-linejoin="round" opacity="1"></path><path d="M1074.96 518.88V615.45" stroke="#333333" stroke-width="2" stroke-linecap="round" stroke-linejoin="round" opacity="1" fill="none"></path><path d="M1074.96 468.82V502.27" stroke="#333333" stroke-width="2" stroke-linecap="round" stroke-linejoin="round" opacity="1" fill="none"></path></g><g><path d="M1066.29 339.12L1081.38 324.03 1074.93 313.62C1076.11 311.42 1076.99 309.23 1077.72 306.88L1089.74 304.1V282.7L1077.72 279.91C1076.99 277.57 1076.11 275.37 1074.93 273.17L1081.38 262.77 1066.29 247.67 1055.88 254.12C1055.88 254.12 1051.48 252.07 1049.14 251.33L1046.35 239.32H1024.96L1022.17 251.33C1022.17 251.33 1017.63 252.95 1015.43 254.12L1005.02 247.67 989.93 262.77 996.38 273.17C995.2 275.37 994.32 277.57 993.59 279.91L981.57 282.7V304.1L993.59 306.88C994.32 309.23 996.38 313.62 996.38 313.62L989.93 324.03 1005.02 339.12 1015.43 332.68C1017.63 333.85 1019.83 334.73 1022.17 335.46L1024.96 347.48H1046.35L1049.14 335.46C1049.14 335.46 1053.68 333.85 1055.88 332.68L1066.29 339.12Z" fill="#abedd8" stroke="#333333" stroke-width="2" stroke-linecap="round" stroke-linejoin="round" opacity="1"></path><path d="M1062.04 297.65C1061.16 303.07 1058.67 308.2 1054.56 312.3 1044.01 322.86 1027.01 322.86 1016.46 312.3 1005.9 301.75 1005.9 284.75 1016.46 274.2 1027.01 263.65 1044.01 263.65 1054.56 274.2 1058.67 278.3 1061.16 283.43 1062.04 288.71" fill="#ffffff" opacity="1" stroke-width="2" stroke="none"></path><path d="M1062.04 297.65C1061.16 303.07 1058.67 308.2 1054.56 312.3 1044.01 322.86 1027.01 322.86 1016.46 312.3 1005.9 301.75 1005.9 284.75 1016.46 274.2 1027.01 263.65 1044.01 263.65 1054.56 274.2 1058.67 278.3 1061.16 283.43 1062.04 288.71" stroke="#333333" stroke-width="2" stroke-linecap="round" stroke-linejoin="round" opacity="1" fill="none"></path><path d="M1161.26 396.87L1167.56 382.21 1160.23 376.79C1160.38 375.03 1160.38 373.13 1160.38 371.37L1168 366.09 1162.14 351.29 1153.05 352.61C1151.88 351.14 1150.71 349.97 1149.24 348.65L1150.85 339.56 1136.2 333.26 1130.77 340.59C1130.77 340.59 1127.11 340.44 1125.35 340.44L1120.08 332.82 1105.27 338.69 1106.59 347.77C1106.59 347.77 1103.95 350.12 1102.63 351.58L1093.55 349.97 1087.25 364.63 1094.57 370.05C1094.43 371.81 1094.43 373.71 1094.43 375.47L1086.81 380.75 1092.67 395.55 1101.76 394.23C1102.93 395.7 1105.57 398.19 1105.57 398.19L1103.95 407.28 1118.61 413.58 1124.03 406.25C1125.79 406.4 1127.7 406.4 1129.46 406.4L1134.73 414.02 1149.53 408.16 1148.22 399.07C1148.22 399.07 1150.85 396.72 1152.17 395.26L1161.26 396.87Z" fill="#abedd8" stroke="#333333" stroke-width="2" stroke-linecap="round" stroke-linejoin="round" opacity="1"></path><path d="M1127.11 393.65C1138.21 393.65 1147.19 384.66 1147.19 373.57 1147.19 362.47 1138.21 353.49 1127.11 353.49 1116.03 353.49 1107.03 362.47 1107.03 373.57 1107.03 384.66 1116.03 393.65 1127.11 393.65Z" fill="#ffffff" opacity="1" stroke-width="2" stroke="none"></path><path d="M1127.11 393.65C1138.21 393.65 1147.19 384.66 1147.19 373.57 1147.19 362.47 1138.21 353.49 1127.11 353.49 1116.03 353.49 1107.03 362.47 1107.03 373.57 1107.03 384.66 1116.03 393.65 1127.11 393.65Z" stroke="#333333" stroke-width="2" stroke-linecap="round" stroke-linejoin="round" opacity="1" fill="none"></path><path d="M1062.62 407.57H1044.74C1031.55 407.57 1021 396.87 1021 383.83V365.95" stroke="#333333" stroke-width="2" stroke-linecap="round" stroke-linejoin="round" opacity="1" fill="none"></path><path d="M1011.33 375.47L1021 365.95 1030.53 375.47" stroke="#333333" stroke-width="2" stroke-linecap="round" stroke-linejoin="round" opacity="1" fill="none"></path><path d="M1107.62 267.6H1125.5C1138.69 267.6 1149.24 278.3 1149.24 291.35V309.23" stroke="#333333" stroke-width="2" stroke-linecap="round" stroke-linejoin="round" opacity="1" fill="none"></path><path d="M1158.77 299.7L1149.24 309.23 1139.71 299.7" stroke="#333333" stroke-width="2" stroke-linecap="round" stroke-linejoin="round" opacity="1" fill="none"></path></g><g><path d="M507.84 759.59V735.52H450.1C420.11 735.52 395.65 711.19 395.65 681.07V520.33H475.36V650.29H569.14L693.17 650.29C720.27 650.29 742.24 672.26 742.24 699.35V897.18L507.84 897.18 507.84 805.76" fill="#ffffff" opacity="1" stroke-width="2" stroke="none"></path><path d="M507.84 759.59V735.52H450.1C420.11 735.52 395.65 711.19 395.65 681.07V520.33H475.36V650.29H569.14L693.17 650.29C720.27 650.29 742.24 672.26 742.24 699.35V897.18L507.84 897.18 507.84 805.76" stroke="#333333" stroke-width="2" stroke-linecap="round" stroke-linejoin="round" opacity="1" fill="none"></path><path d="M507.84 774.72V789.71" stroke="#333333" stroke-width="2" stroke-linecap="round" stroke-linejoin="round" opacity="1" fill="none"></path><path d="M588.74 579.92C645.03 543.88 694.1 591.23 694.1 591.23 698.04 599.91 700.28 609.65 700.28 620.04 700.28 658.18 669.37 689.09 631.22 689.09 603.86 689.09 580.58 673.31 569.27 650.42 569.14 650.16 552.43 603.07 588.74 579.92Z" fill="#ffffff" stroke="#333333" stroke-width="2" stroke-linecap="round" stroke-linejoin="round" opacity="1"></path><path d="M631.09 550.72C658.98 550.72 683.18 567.42 694.1 591.23L593.47 590.97V625.82C593.47 639.24 582.69 649.89 569.4 649.89H569.14C564.67 640.69 562.04 630.3 562.04 619.51 562.04 581.76 593.21 550.72 631.09 550.72Z" fill="#48466d" stroke="#333333" stroke-width="2" stroke-linecap="round" stroke-linejoin="round" opacity="1"></path><path d="M658.06 611.09V641.87" stroke="#333333" stroke-width="2" stroke-linecap="round" stroke-linejoin="round" opacity="1" fill="none"></path><path d="M641.48 641.87C641.48 646.61 645.3 650.16 649.77 650.16 654.5 650.16 658.06 646.34 658.06 641.87" stroke="#333333" stroke-width="2" stroke-linecap="round" stroke-linejoin="round" opacity="1" fill="none"></path></g><g><path d="M720.06 888.79H716.59 647.54 455.86C433.1 888.79 414.72 907.17 414.72 929.92 414.72 952.68 433.1 971.06 455.86 971.06H385.47C371.79 971.06 360.69 982.16 360.69 995.83 360.69 1009.51 371.79 1020.61 385.47 1020.61H647.43 693.61 745.4C781.83 1020.61 811.31 991.13 811.31 954.7 811.31 918.27 781.83 888.79 745.4 888.79" fill="#3d84a8" opacity="1" stroke-width="2" stroke="none"></path><path d="M720.06 888.79H716.59 647.54 455.86C433.1 888.79 414.72 907.17 414.72 929.92 414.72 952.68 433.1 971.06 455.86 971.06H385.47C371.79 971.06 360.69 982.16 360.69 995.83 360.69 1009.51 371.79 1020.61 385.47 1020.61H647.43 693.61 745.4C781.83 1020.61 811.31 991.13 811.31 954.7 811.31 918.27 781.83 888.79 745.4 888.79" stroke="#333333" stroke-width="2" stroke-linecap="round" stroke-linejoin="round" opacity="1" fill="none"></path><path d="M456.08 970.95H553.72" stroke="#333333" stroke-width="2" stroke-linecap="round" stroke-linejoin="round" opacity="1" fill="none"></path><path d="M566.72 970.95H588.69" stroke="#333333" stroke-width="2" stroke-linecap="round" stroke-linejoin="round" opacity="1" fill="none"></path></g><g><path d="M1043.96 654.12H1014.71L1034.34 689.98C1036.98 694.75 1032.45 700.07 1025.77 700.07 1022.04 700.07 1018.7 698.32 1017.2 695.68L994.44 654.15H965.19L1007.14 730.69H1010.63 1036.38 1056.61 1062.19 1085.85L1043.96 654.12Z" fill="#46cdcf" stroke="#333333" stroke-width="2" stroke-linecap="round" stroke-linejoin="round" opacity="1"></path><path d="M1136.32 656.13C1136.32 658.7 1133.63 660.79 1130.34 660.79H871.83C868.54 660.79 865.85 658.7 865.85 656.13V641.5C884.34 595.36 883.29 561.4 865.85 512.85V499.42C865.85 496.86 868.54 494.76 871.83 494.76H1130.34C1133.63 494.76 1136.32 496.86 1136.32 499.42V512.85C1129.25 558.61 1125.66 586.9 1136.32 641.5V656.13Z" fill="#46cdcf" stroke="#333333" stroke-width="2" stroke-linecap="round" stroke-linejoin="round" opacity="1"></path><path d="M1001.11 505.9C1002.6 505.9 1003.8 504.96 1003.8 503.81 1003.8 502.65 1002.6 501.71 1001.11 501.71 999.63 501.71 998.42 502.65 998.42 503.81 998.42 504.96 999.63 505.9 1001.11 505.9Z" fill="#ffffff" stroke="#333333" stroke-width="2" stroke-linecap="round" stroke-linejoin="round" opacity="1"></path><path d="M1089.24 726.3H912.88C910.99 726.3 909.44 727.51 909.44 728.98V735.77H1092.68V729.02C1092.73 727.51 1091.18 726.3 1089.24 726.3Z" fill="#46cdcf" stroke="#333333" stroke-width="2" stroke-linecap="round" stroke-linejoin="round" opacity="1"></path><path d="M1136.32 512.85H865.85V641.5H1136.32V512.85Z" fill="#abedd8" stroke="#333333" stroke-width="2" stroke-linecap="round" stroke-linejoin="round" opacity="1"></path><path d="M882.39 598.35L915.07 566.06 922.75 572.15 941.33 555.11 947.46 560.74 953.04 550.03 963.3 562.45 965.59 541.53 970.67 553.29 987.91 538.19 1018.9 579.45 1034.79 569.82 1042.21 578.79 1051.88 573.55 1064.33 591.48 1078.63 565.05" stroke="#333333" stroke-width="2" stroke-linecap="round" stroke-linejoin="round" opacity="1" fill="none"></path><path d="M865.85 618.22H1136.32" stroke="#333333" stroke-width="2" stroke-linecap="round" stroke-linejoin="round" opacity="1" fill="none"></path><path d="M1095.22 641.5V512.85" stroke="#333333" stroke-width="2" stroke-linecap="round" stroke-linejoin="round" opacity="1" fill="none"></path><path d="M1116.34 624V635.72" stroke="#333333" stroke-width="2" stroke-linecap="round" stroke-linejoin="round" opacity="1" fill="none"></path><path d="M1123.87 629.86H1108.82" stroke="#333333" stroke-width="2" stroke-linecap="round" stroke-linejoin="round" opacity="1" fill="none"></path><path d="M1100.6 605.95H1110.71" stroke="#333333" stroke-width="2" stroke-linecap="round" stroke-linejoin="round" opacity="1" fill="none"></path><path d="M1100.6 594.43H1110.71" stroke="#333333" stroke-width="2" stroke-linecap="round" stroke-linejoin="round" opacity="1" fill="none"></path><path d="M1100.6 582.86H1106.53" stroke="#333333" stroke-width="2" stroke-linecap="round" stroke-linejoin="round" opacity="1" fill="none"></path><path d="M1100.6 571.33H1110.71" stroke="#333333" stroke-width="2" stroke-linecap="round" stroke-linejoin="round" opacity="1" fill="none"></path><path d="M1100.6 559.77H1110.71" stroke="#333333" stroke-width="2" stroke-linecap="round" stroke-linejoin="round" opacity="1" fill="none"></path><path d="M1100.6 548.2H1106.53" stroke="#333333" stroke-width="2" stroke-linecap="round" stroke-linejoin="round" opacity="1" fill="none"></path><path d="M1100.6 536.68H1110.71" stroke="#333333" stroke-width="2" stroke-linecap="round" stroke-linejoin="round" opacity="1" fill="none"></path><path d="M1100.6 525.11H1110.71" stroke="#333333" stroke-width="2" stroke-linecap="round" stroke-linejoin="round" opacity="1" fill="none"></path><path d="M881.4 629.86H1079.68" stroke="#333333" stroke-width="2" stroke-linecap="round" stroke-linejoin="round" opacity="1" fill="none"></path><path d="M881.4 626.44V633.31" stroke="#333333" stroke-width="2" stroke-linecap="round" stroke-linejoin="round" opacity="1" fill="none"></path><path d="M888.22 625.13V631.99" stroke="#333333" stroke-width="2" stroke-linecap="round" stroke-linejoin="round" opacity="1" fill="none"></path><path d="M895.05 627.1V632.65" stroke="#333333" stroke-width="2" stroke-linecap="round" stroke-linejoin="round" opacity="1" fill="none"></path><path d="M901.87 629.04V635.91" stroke="#333333" stroke-width="2" stroke-linecap="round" stroke-linejoin="round" opacity="1" fill="none"></path><path d="M908.75 627.1V633.93" stroke="#333333" stroke-width="2" stroke-linecap="round" stroke-linejoin="round" opacity="1" fill="none"></path><path d="M915.57 623.03V629.86" stroke="#333333" stroke-width="2" stroke-linecap="round" stroke-linejoin="round" opacity="1" fill="none"></path><path d="M922.4 626.44V633.31" stroke="#333333" stroke-width="2" stroke-linecap="round" stroke-linejoin="round" opacity="1" fill="none"></path><path d="M929.22 627.76V634.59" stroke="#333333" stroke-width="2" stroke-linecap="round" stroke-linejoin="round" opacity="1" fill="none"></path><path d="M936.1 625.13V631.99" stroke="#333333" stroke-width="2" stroke-linecap="round" stroke-linejoin="round" opacity="1" fill="none"></path><path d="M942.92 629.86V636.73" stroke="#333333" stroke-width="2" stroke-linecap="round" stroke-linejoin="round" opacity="1" fill="none"></path><path d="M949.75 627.76V634.59" stroke="#333333" stroke-width="2" stroke-linecap="round" stroke-linejoin="round" opacity="1" fill="none"></path><path d="M956.57 626.44V633.31" stroke="#333333" stroke-width="2" stroke-linecap="round" stroke-linejoin="round" opacity="1" fill="none"></path><path d="M963.45 625.13V631.99" stroke="#333333" stroke-width="2" stroke-linecap="round" stroke-linejoin="round" opacity="1" fill="none"></path><path d="M970.27 625.13V631.99" stroke="#333333" stroke-width="2" stroke-linecap="round" stroke-linejoin="round" opacity="1" fill="none"></path><path d="M977.1 628.42V635.25" stroke="#333333" stroke-width="2" stroke-linecap="round" stroke-linejoin="round" opacity="1" fill="none"></path><path d="M983.92 626.44V633.31" stroke="#333333" stroke-width="2" stroke-linecap="round" stroke-linejoin="round" opacity="1" fill="none"></path><path d="M990.8 623.84V629.86" stroke="#333333" stroke-width="2" stroke-linecap="round" stroke-linejoin="round" opacity="1" fill="none"></path><path d="M997.62 627.76V633.31" stroke="#333333" stroke-width="2" stroke-linecap="round" stroke-linejoin="round" opacity="1" fill="none"></path><path d="M1004.45 623.84V633.31" stroke="#333333" stroke-width="2" stroke-linecap="round" stroke-linejoin="round" opacity="1" fill="none"></path><path d="M1011.27 626.44V631.33" stroke="#333333" stroke-width="2" stroke-linecap="round" stroke-linejoin="round" opacity="1" fill="none"></path><path d="M1018.15 627.76V634.59" stroke="#333333" stroke-width="2" stroke-linecap="round" stroke-linejoin="round" opacity="1" fill="none"></path><path d="M1024.97 625.78V632.65" stroke="#333333" stroke-width="2" stroke-linecap="round" stroke-linejoin="round" opacity="1" fill="none"></path><path d="M1031.8 626.44V633.31" stroke="#333333" stroke-width="2" stroke-linecap="round" stroke-linejoin="round" opacity="1" fill="none"></path><path d="M1038.62 626.44V631.99" stroke="#333333" stroke-width="2" stroke-linecap="round" stroke-linejoin="round" opacity="1" fill="none"></path><path d="M1045.5 623.84V633.31" stroke="#333333" stroke-width="2" stroke-linecap="round" stroke-linejoin="round" opacity="1" fill="none"></path><path d="M1052.33 628.42V635.25" stroke="#333333" stroke-width="2" stroke-linecap="round" stroke-linejoin="round" opacity="1" fill="none"></path><path d="M1059.15 624.5V631.33" stroke="#333333" stroke-width="2" stroke-linecap="round" stroke-linejoin="round" opacity="1" fill="none"></path><path d="M1065.98 624.5V631.33" stroke="#333333" stroke-width="2" stroke-linecap="round" stroke-linejoin="round" opacity="1" fill="none"></path><path d="M1072.85 627.76V634.59" stroke="#333333" stroke-width="2" stroke-linecap="round" stroke-linejoin="round" opacity="1" fill="none"></path><path d="M1079.68 626.44V633.31" stroke="#333333" stroke-width="2" stroke-linecap="round" stroke-linejoin="round" opacity="1" fill="none"></path><path d="M881.4 530.43C881.4 530.39 881.4 530.39 881.45 530.39H899.78C899.83 530.39 899.83 530.39 899.83 530.43V535.36C899.83 535.4 899.83 535.4 899.78 535.4H881.45C881.4 535.4 881.4 535.4 881.4 535.36V530.43Z" fill="#46cdcf" stroke="#333333" stroke-width="2" stroke-linecap="round" stroke-linejoin="round" opacity="1"></path><path d="M905.56 530.43C905.56 530.39 905.56 530.39 905.61 530.39H923.94C923.99 530.39 923.99 530.39 923.99 530.43V535.36C923.99 535.4 923.99 535.4 923.94 535.4H905.61C905.56 535.4 905.56 535.4 905.56 535.36V530.43Z" fill="#46cdcf" stroke="#333333" stroke-width="2" stroke-linecap="round" stroke-linejoin="round" opacity="1"></path><path d="M881.4 523.06H948.7" stroke="#333333" stroke-width="2" stroke-linecap="round" stroke-linejoin="round" opacity="1" fill="none"></path></g><g><path d="M1129.37 735.73H1161.2C1195.61 735.73 1222.94 761.09 1222.94 793.02 1222.94 824.65 1195.61 850.31 1161.2 850.31H840.31C806.23 850.31 778.58 824.65 778.58 793.02 778.58 761.09 806.23 735.73 840.31 735.73H1075.68" fill="#78c7e0" opacity="1" stroke-width="2" stroke="none"></path><path d="M1129.37 735.73H1161.2C1195.61 735.73 1222.94 761.09 1222.94 793.02 1222.94 824.65 1195.61 850.31 1161.2 850.31H840.31C806.23 850.31 778.58 824.65 778.58 793.02 778.58 761.09 806.23 735.73 840.31 735.73H1075.68" stroke="#333333" stroke-width="2" stroke-linecap="round" stroke-linejoin="round" opacity="1" fill="none"></path><path d="M1224.54 897.76H1299.14" stroke="#333333" stroke-width="2" stroke-linecap="round" stroke-linejoin="round" opacity="1" fill="none"></path><path d="M1047.38 850.31C1047.38 876.28 1070.21 897.46 1098.18 897.46H1195.61" stroke="#333333" stroke-width="2" stroke-linecap="round" stroke-linejoin="round" opacity="1" fill="none"></path></g></svg>